{"title":"La notte (Michelangelo Antonioni, 1961)","uid":8974454,"size":2124623865,"categoryP":"video","categoryS":"movies","magnet":"?xt=urn:btih:9a0f3f016b44139c62d657686d69c7dbd30f4bf4&amp;dn=La+notte+%28Michelangelo+Antonioni%2C+1961%29&amp;tr=udp%3A%2F%2Ftracker.openbittorrent.com%3A80&amp;tr=udp%3A%2F%2Fopen.demonii.com%3A1337&amp;tr=udp%3A%2F%2Ftracker.coppersurfer.tk%3A6969&amp;tr=udp%3A%2F%2Fexodus.desync.com%3A6969","seeders":10,"leechers":0,"uploader":"moonflux","files":1,"time":1380402900,"description":"In Milan, after visiting dear friend Tommaso Garani that is terminal in a hospital, the writer Giovanni Pontano goes to a party for the release of his last book, and his wife Lydia Pontano visits the place where she lived many years ago. In the night, they go to a night-club, and later to a party in the mansion of the tycoon Mr. Gherardini. Along the night, Giovanni flirts with Valentina Gherardini, the daughter of the host, and then he receives a proposal to work for him in the area of communication and write the history of his company. Meanwhile, Lydia flirts with the playboy Roberto. \n\nGeneral\nUnique ID : 236287496874450782230466310044526862294 (0xB1C3510AD41DCF69B8D054D151D05FD6)\nComplete name : La.Notte.1961.DVDRip.x264.mkv\nFormat : Matroska\nFormat version : Version 2\nFile size : 1.98 GiB\nDuration : 1h 57mn\nOverall bit rate : 2 416 Kbps\nEncoded date : UTC 2011-12-20 13:25:37\nWriting application : mkvmerge v5.2.0 ('I can't explain') built on Dec 18 2011 18:12:03\nWriting library : libebml v1.2.3 + libmatroska v1.3.0\n\nVideo\nID : 1\nFormat : AVC\nFormat/Info : Advanced Video Codec\nFormat profile : &lt;a class=&quot;__cf_email__&quot; href=&quot;/cdn-cgi/l/email-protection&quot; data-cfemail=&quot;753d1c121d3539415b45&quot;&gt;[email&amp;#160;protected]&lt;/a&gt;&lt;script cf-hash='f9e31' type=&quot;text/javascript&quot;&gt;\n/* &lt;![CDATA[ */!function(){try{var t=&quot;currentScript&quot;in document?document.currentScript:function(){for(var t=document.getElementsByTagName(&quot;script&quot;),e=t.length;e--;)if(t[e].getAttribute(&quot;cf-hash&quot;))return t[e]}();if(t&amp;&amp;t.previousSibling){var e,r,n,i,c=t.previousSibling,a=c.getAttribute(&quot;data-cfemail&quot;);if(a){for(e=&quot;&quot;,r=parseInt(a.substr(0,2),16),n=2;a.length-n;n+=2)i=parseInt(a.substr(n,2),16)^r,e+=String.fromCharCode(i);e=document.createTextNode(e),c.parentNode.replaceChild(e,c)}}}catch(u){}}();/* ]]&gt; */&lt;/script&gt;\nFormat settings, CABAC : Yes\nFormat settings, ReFrames : 16 frames\nMuxing mode : Header stripping\nCodec ID : V_MPEG4/ISO/AVC\nDuration : 1h 57mn\nBit rate : 2 176 Kbps\nWidth : 664 pixels\nHeight : 570 pixels\nDisplay aspect ratio : 1.660\nFrame rate : 25.000 fps\nColor space : YUV\nChroma subsampling : 4:2:0\nBit depth : 8 bits\nScan type : Progressive\nBits/(Pixel*Frame) : 0.230\nStream size : 1.78 GiB (90%)\nWriting library : x264 core 119 r2106 07efeb4\nEncoding settings : cabac=1 // deblock=1:-3:-3 / analyse=0x3:0x133 / me=umh / subme=11 / psy=1 / psy_rd=1.00:0.00 // me_range=64 / chroma_me=1 / trellis=2 / 8x8dct=1 / cqm=0 / deadzone=21,11 / fast_pskip=0 / chroma_qp_offset=-2 / threads=9 / sliced_threads=0 / nr=0 / decimate=1 / interlaced=0 / bluray_compat=0 / constrained_intra=0 / bframes=16 / b_pyramid=2 / b_adapt=2 / b_bias=0 / direct=3 / weightb=1 / open_gop=0 / weightp=2 / keyint=250 / keyint_min=25 / scenecut=40 / intra_refresh=0 / rc_lookahead=80 / rc=crf / mbtree=1 / crf=17.9 / qcomp=0.60 / qpmin=0 / qpmax=69 / qpstep=4 / ip_ratio=1.40 / aq=2:1.00\nLanguage : English\n\nAudio\nID : 2\nFormat : AC-3\nFormat/Info : Audio Coding 3\nMode extension : CM (complete main)\nMuxing mode : Header stripping\nCodec ID : A_AC3\nDuration : 1h 57mn\nBit rate mode : Constant\nBit rate : 192 Kbps\nChannel(s) : 2 channels\nChannel positions : Front: L R\nSampling rate : 48.0 KHz\nBit depth : 16 bits\nCompression mode : Lossy\nStream size : 161 MiB (8%)\nLanguage : Italian\n\nText\nID : 3\nFormat : UTF-8\nCodec ID : S_TEXT/UTF8\nCodec ID/Info : UTF-8 Plain Text\nLanguage : English","torrent":{"xt":"urn:btih:9a0f3f016b44139c62d657686d69c7dbd30f4bf4","amp;dn":"La+notte+%28Michelangelo+Antonioni%2C+1961%29","amp;tr":["udp%3A%2F%2Ftracker.openbittorrent.com%3A80","udp%3A%2F%2Fopen.demonii.com%3A1337","udp%3A%2F%2Ftracker.coppersurfer.tk%3A6969","udp%3A%2F%2Fexodus.desync.com%3A6969"],"infoHash":"9a0f3f016b44139c62d657686d69c7dbd30f4bf4","infoHashBuffer":{"type":"Buffer","data":[154,15,63,1,107,68,19,156,98,214,87,104,109,105,199,219,211,15,75,244]},"announce":[],"urlList":[]}}